<svg width="28" height="29" viewBox="0 0 28 29" fill="none" xmlns="http://www.w3.org/2000/svg">
<g id="gg:close-o">
<g id="Group">
<path id="Vector" d="M19.0635 11.5226C19.1755 11.4181 19.2659 11.2926 19.3295 11.1532C19.393 11.0138 19.4285 10.8632 19.4339 10.7101C19.4392 10.5569 19.4144 10.4042 19.3607 10.2607C19.3071 10.1172 19.2257 9.98563 19.1212 9.87355C19.0167 9.76148 18.8912 9.67109 18.7518 9.60753C18.6123 9.54398 18.4618 9.5085 18.3086 9.50314C18.1555 9.49778 18.0028 9.52263 17.8593 9.57628C17.7158 9.62992 17.5842 9.71131 17.4721 9.8158L14.0585 12.9985L10.8758 9.58364C10.6628 9.36552 10.373 9.23942 10.0682 9.23231C9.76348 9.22521 9.46805 9.33766 9.24516 9.54561C9.02226 9.75356 8.88962 10.0405 8.8756 10.345C8.86157 10.6495 8.96729 10.9474 9.17013 11.175L12.3528 14.5886L8.93797 17.7713C8.82194 17.8747 8.72774 18.0003 8.66092 18.1406C8.5941 18.281 8.55599 18.4333 8.54884 18.5885C8.54169 18.7438 8.56564 18.8989 8.61929 19.0448C8.67293 19.1907 8.75519 19.3244 8.86122 19.4381C8.96726 19.5517 9.09493 19.643 9.23675 19.7067C9.37858 19.7703 9.53168 19.8049 9.68707 19.8085C9.84247 19.8122 9.99702 19.7847 10.1417 19.7278C10.2863 19.6708 10.4181 19.5856 10.5293 19.477L13.943 16.2955L17.1256 19.7091C17.2284 19.8273 17.3539 19.9236 17.4947 19.9922C17.6354 20.0609 17.7886 20.1005 17.945 20.1086C18.1014 20.1168 18.2578 20.0935 18.405 20.0399C18.5521 19.9863 18.687 19.9037 18.8015 19.7969C18.9161 19.6901 19.008 19.5614 19.0717 19.4183C19.1354 19.2753 19.1697 19.1208 19.1725 18.9643C19.1752 18.8077 19.1465 18.6521 19.0879 18.5069C19.0292 18.3617 18.942 18.2298 18.8313 18.119L15.6498 14.7053L19.0635 11.5226Z" fill="#F24E1E"/>
<path id="Vector_2" fill-rule="evenodd" clip-rule="evenodd" d="M1.16675 14.647C1.16675 7.55949 6.91258 1.81366 14.0001 1.81366C21.0876 1.81366 26.8334 7.55949 26.8334 14.647C26.8334 21.7345 21.0876 27.4803 14.0001 27.4803C6.91258 27.4803 1.16675 21.7345 1.16675 14.647ZM14.0001 25.147C12.6212 25.147 11.2558 24.8754 9.9819 24.3477C8.70799 23.8201 7.55048 23.0466 6.57546 22.0716C5.60044 21.0966 4.82702 19.9391 4.29935 18.6652C3.77167 17.3912 3.50008 16.0259 3.50008 14.647C3.50008 13.2681 3.77167 11.9027 4.29935 10.6288C4.82702 9.3549 5.60044 8.19739 6.57546 7.22237C7.55048 6.24736 8.70799 5.47393 9.9819 4.94626C11.2558 4.41858 12.6212 4.14699 14.0001 4.14699C16.7849 4.14699 19.4556 5.25324 21.4247 7.22237C23.3938 9.1915 24.5001 11.8622 24.5001 14.647C24.5001 17.4318 23.3938 20.1025 21.4247 22.0716C19.4556 24.0407 16.7849 25.147 14.0001 25.147Z" fill="#F24E1E"/>
</g>
</g>
</svg>
