<svg width="81" height="66" viewBox="0 0 81 66" fill="none" xmlns="http://www.w3.org/2000/svg">
<g id="SvgjsG8619">
<g id="Group">
<path id="Vector" d="M48.1673 36.9445C46.0483 36.9445 44.3228 40.1395 44.3228 44.0874C44.3228 48.0342 46.0483 51.238 48.1673 51.238C50.2853 51.238 52.0075 48.0353 52.0075 44.0874C52.0108 40.1373 50.2886 36.9445 48.1673 36.9445Z" fill="#FF4848"/>
<path id="Vector_2" d="M32.0779 36.9445C29.9544 36.9445 28.2322 40.1395 28.2322 44.0874C28.2322 48.0342 29.9544 51.238 32.0779 51.238C34.198 51.238 35.9192 48.0353 35.9192 44.0874C35.9192 40.1395 34.198 36.9445 32.0779 36.9445Z" fill="#FF4848"/>
<path id="Vector_3" d="M73.721 16.7454C74.3684 15.1617 76.4918 8.77268 73.0484 0.141581C73.0484 0.141581 67.7717 -1.52793 55.8203 6.63826C50.8161 5.26111 45.4383 5.05558 40.1199 5.05558C34.8014 5.05558 29.428 5.26111 24.4085 6.64266C12.4614 -1.52903 7.18691 0.140483 7.18691 0.140483C3.74787 8.77598 5.8735 15.1606 6.51866 16.7454C2.46854 21.1231 0 26.7119 0 33.5636C0 59.3591 16.7083 65.1919 40.0264 65.1919C63.3556 65.1919 80.2353 59.3602 80.2353 33.5636C80.2353 26.7119 77.7668 21.122 73.7155 16.7454H73.721ZM40.122 60.256C23.5589 60.256 10.1302 59.48 10.1302 43.4334C10.1302 39.6009 12.0163 36.0223 15.2498 33.0657C20.6353 28.1308 29.7676 30.739 40.1231 30.739C50.4864 30.739 59.6055 28.1308 64.9965 33.0602C68.2333 36.0223 70.1248 39.5899 70.1248 43.429C70.1248 59.4811 56.6874 60.256 40.1242 60.256H40.122Z" fill="#FF4848"/>
</g>
</g>
</svg>
